<svg width="30" height="30" viewBox="0 0 30 30" fill="none" xmlns="http://www.w3.org/2000/svg">
<path d="M15 3C8.373 3 3 8.373 3 15C3 21.627 8.373 27 15 27C21.627 27 27 21.627 27 15C27 8.373 21.627 3 15 3ZM15 22.2285C14.172 22.2285 13.5 21.5565 13.5 20.7285C13.5 19.9005 14.172 19.2285 15 19.2285C15.828 19.2285 16.5 19.9005 16.5 20.7285C16.5 21.5565 15.828 22.2285 15 22.2285ZM16.5 16.5285C16.5 17.3565 15.828 18.0285 15 18.0285C14.172 18.0285 13.5 17.3565 13.5 16.5285V9.2715C13.5 8.4435 14.172 7.7715 15 7.7715C15.828 7.7715 16.5 8.4435 16.5 9.2715V16.5285Z" fill="#CE5353"/>
</svg>
