<svg width="25" height="25" viewBox="0 0 25 25" fill="none" xmlns="http://www.w3.org/2000/svg">
<path d="M10.3 15.8375L18.775 7.3625C18.975 7.1625 19.2083 7.0625 19.475 7.0625C19.7416 7.0625 19.975 7.1625 20.175 7.3625C20.375 7.5625 20.475 7.8 20.475 8.075C20.475 8.35 20.375 8.5875 20.175 8.7875L11 17.9875C10.8 18.1875 10.5666 18.2875 10.3 18.2875C10.0333 18.2875 9.79996 18.1875 9.59996 17.9875L5.29996 13.6875C5.09996 13.4875 5.00413 13.25 5.01246 12.975C5.0208 12.7 5.12496 12.4625 5.32496 12.2625C5.52496 12.0625 5.76246 11.9625 6.03746 11.9625C6.31246 11.9625 6.54996 12.0625 6.74996 12.2625L10.3 15.8375Z" fill="#7455FF"/>
</svg>
