<svg width="30" height="30" viewBox="0 0 30 30" fill="none" xmlns="http://www.w3.org/2000/svg">
<path d="M15 3C8.37185 3 3 8.37185 3 15C3 21.6281 8.37185 27 15 27C21.6281 27 27 21.6281 27 15C27 8.37185 21.6281 3 15 3ZM22.0726 11.6311L14.6444 20.2978C14.3852 20.6 14.0148 20.7852 13.6178 20.8119C13.5852 20.8133 13.5526 20.8148 13.52 20.8148C13.157 20.8148 12.8044 20.6815 12.5319 20.437L8.06667 16.437C7.45778 15.8904 7.40593 14.9541 7.95111 14.3452C8.49778 13.7363 9.43407 13.6844 10.043 14.2296L13.3807 17.2193L19.8237 9.70222C20.357 9.08148 21.2919 9.00889 21.9126 9.54222C22.5333 10.0741 22.6059 11.0104 22.0726 11.6311Z" fill="#5CB86C"/>
</svg>
