<svg width="25" height="25" viewBox="0 0 25 25" fill="none" xmlns="http://www.w3.org/2000/svg">
<path d="M10.75 3.6875C10.4667 3.6875 10.2292 3.59167 10.0375 3.4C9.84583 3.20833 9.75 2.97083 9.75 2.6875C9.75 2.40417 9.84583 2.16667 10.0375 1.975C10.2292 1.78333 10.4667 1.6875 10.75 1.6875H14.75C15.0333 1.6875 15.2708 1.78333 15.4625 1.975C15.6542 2.16667 15.75 2.40417 15.75 2.6875C15.75 2.97083 15.6542 3.20833 15.4625 3.4C15.2708 3.59167 15.0333 3.6875 14.75 3.6875H10.75ZM12.75 14.6875C13.0333 14.6875 13.2708 14.5917 13.4625 14.4C13.6542 14.2083 13.75 13.9708 13.75 13.6875V9.6875C13.75 9.40417 13.6542 9.16667 13.4625 8.975C13.2708 8.78333 13.0333 8.6875 12.75 8.6875C12.4667 8.6875 12.2292 8.78333 12.0375 8.975C11.8458 9.16667 11.75 9.40417 11.75 9.6875V13.6875C11.75 13.9708 11.8458 14.2083 12.0375 14.4C12.2292 14.5917 12.4667 14.6875 12.75 14.6875ZM12.75 22.6875C11.5167 22.6875 10.3542 22.45 9.2625 21.975C8.17083 21.5 7.21667 20.8542 6.4 20.0375C5.58333 19.2208 4.9375 18.2667 4.4625 17.175C3.9875 16.0833 3.75 14.9208 3.75 13.6875C3.75 12.4542 3.9875 11.2917 4.4625 10.2C4.9375 9.10833 5.58333 8.15417 6.4 7.3375C7.21667 6.52083 8.17083 5.875 9.2625 5.4C10.3542 4.925 11.5167 4.6875 12.75 4.6875C13.7833 4.6875 14.775 4.85417 15.725 5.1875C16.675 5.52083 17.5667 6.00417 18.4 6.6375L19.1 5.9375C19.2833 5.75417 19.5167 5.6625 19.8 5.6625C20.0833 5.6625 20.3167 5.75417 20.5 5.9375C20.6833 6.12083 20.775 6.35417 20.775 6.6375C20.775 6.92083 20.6833 7.15417 20.5 7.3375L19.8 8.0375C20.4333 8.87083 20.9167 9.7625 21.25 10.7125C21.5833 11.6625 21.75 12.6542 21.75 13.6875C21.75 14.9208 21.5125 16.0833 21.0375 17.175C20.5625 18.2667 19.9167 19.2208 19.1 20.0375C18.2833 20.8542 17.3292 21.5 16.2375 21.975C15.1458 22.45 13.9833 22.6875 12.75 22.6875ZM12.75 20.6875C14.6833 20.6875 16.3333 20.0042 17.7 18.6375C19.0667 17.2708 19.75 15.6208 19.75 13.6875C19.75 11.7542 19.0667 10.1042 17.7 8.7375C16.3333 7.37083 14.6833 6.6875 12.75 6.6875C10.8167 6.6875 9.16667 7.37083 7.8 8.7375C6.43333 10.1042 5.75 11.7542 5.75 13.6875C5.75 15.6208 6.43333 17.2708 7.8 18.6375C9.16667 20.0042 10.8167 20.6875 12.75 20.6875Z" fill="#7455FF"/>
</svg>
